Coordinates
version=1
nRows=19
nColumns=36
inDegrees=yes

Units are S.I. units (second, meters, Newtons, ...)
If the header above contains a line with 'inDegrees', this indicates whether rotational values are in degrees (yes) or radians (no).

endheader
time	pelvis_tilt	pelvis_list	pelvis_rotation	pelvis_tx	pelvis_ty	pelvis_tz	hip_flexion_r	hip_adduction_r	hip_rotation_r	knee_angle_r	knee_angle_r_beta	ankle_angle_r	subtalar_angle_r	mtp_angle_r	hip_flexion_l	hip_adduction_l	hip_rotation_l	knee_angle_l	knee_angle_l_beta	ankle_angle_l	subtalar_angle_l	mtp_angle_l	lumbar_extension	lumbar_bending	lumbar_rotation	arm_flex_r	arm_add_r	arm_rot_r	elbow_flex_r	pro_sup_r	arm_flex_l	arm_add_l	arm_rot_l	elbow_flex_l	pro_sup_l
     11.05000000	     -1.59727614	      0.34945531	    -50.13217477	      0.98357107	      0.94570313	      0.31055442	      1.97779647	      1.32753813	    -23.99113631	      2.21383308	      0.03863868	      6.95713202	     20.92032360	     -7.49999987	      0.32955500	     -0.61329838	    -17.40282028	      3.26815322	      0.05704003	     12.14493841	      9.90008386	     -7.49999987	     -4.20255077	      1.72209141	     -5.35443201	     -6.13819897	    -15.97923812	     24.87782632	     30.11366656	     64.43839731	      4.97221873	    -10.56960273	     54.64081858	     17.51795326	     44.02517352
     11.06666670	     -1.64699904	      0.23242365	    -50.16638155	      0.98499688	      0.93514537	      0.30923223	      1.95513747	      1.35283043	    -23.94489986	      2.33405321	      0.04073691	      6.91822880	     20.97426886	     -7.49999987	      0.27622408	     -0.71681198	    -17.46711451	      3.26031627	      0.05690325	     12.22882000	      9.84109892	     -7.49999987	     -4.09716654	      1.70181728	     -5.33345853	     -6.07456716	    -15.48987792	     24.97894199	     30.28662543	     64.45818474	      4.97963893	    -10.47541503	     54.67488088	     17.56612233	     44.02683117
     11.08333330	     -1.64162181	      0.16113247	    -50.43943815	      0.98307977	      0.93766111	      0.31057675	      1.93144381	      1.18858634	    -24.05892070	      2.73781601	      0.04778390	      6.93772014	     22.38811390	     -7.49999987	      0.13723617	     -0.76645724	    -18.01278367	      3.19729832	      0.05580338	     12.57624376	     10.06583761	     -7.49999987	     -4.09178171	      1.51122083	     -5.32844047	     -5.64077711	    -15.06691914	     26.77182268	     30.35758731	     65.02322388	      4.82855064	    -10.69075748	     55.03215511	     17.74424183	     45.48435758
     11.10000000	     -1.62995772	      0.22769794	    -50.43987115	      0.98220501	      0.93801703	      0.31013328	      1.76764548	      0.89193561	    -23.45248332	      2.96909663	      0.05182051	      7.38938583	     22.93118034	     -7.49999987	      0.19617909	     -0.71968066	    -18.13939846	      3.29628648	      0.05753105	     12.82304041	      9.89173780	     -7.49999987	     -3.82081987	      1.27655572	     -5.26134837	     -5.62607628	    -14.61349193	     27.47431648	     30.16046391	     65.35066612	      5.05788796	    -10.83472439	     57.41984999	     17.54143454	     44.44436077
     11.11666670	     -1.57671034	      0.22510456	    -50.33209483	      0.98146945	      0.93731840	      0.31085656	      1.49849068	      0.71907107	    -22.62946668	      3.04293488	      0.05310923	      7.73231056	     23.18890944	     -7.49999987	      0.12300723	     -0.66743494	    -17.79171361	      3.29932157	      0.05758402	     12.80455905	      9.34419501	     -7.49999987	     -3.90061287	      1.07194197	     -5.01627950	     -5.73702136	    -14.01696163	     27.11862745	     30.19914318	     64.70375935	      5.03287340	    -10.89020727	     56.31463351	     17.73651385	     45.95986865
     11.13333330	     -1.52342832	      0.23753931	    -50.33872515	      0.98428611	      0.94039253	      0.31114809	      1.28929438	      0.51955283	    -22.45034565	      3.14074801	      0.05481639	      7.72183570	     23.77288277	     -7.49999987	     -0.13027200	     -0.51165352	    -17.89091338	      3.16989638	      0.05532513	     12.79791738	      9.60218940	     -7.49999987	     -3.70695764	      0.90673938	     -4.83082262	     -5.77444776	    -13.74241879	     27.94404518	     29.69165298	     65.04728238	      5.45047245	    -10.92304349	     61.65548809	     17.35500885	     39.82012672
     11.15000000	     -1.52759302	      0.33328975	    -50.33193282	      0.98018312	      0.93718337	      0.31117449	      1.05191116	      0.36179863	    -21.79813768	      3.04893789	      0.05321400	      7.97250969	     24.13386362	     -7.49999987	     -0.06186025	     -0.45511035	    -17.75481625	      3.11720749	      0.05440553	     12.78271292	      9.57968799	     -7.49999987	     -3.61088011	      0.67253487	     -4.70086984	     -5.79257587	    -13.36082325	     28.04792358	     29.49241296	     65.05700647	      5.41767845	    -10.97387708	     61.72780890	     17.38786401	     39.84603208
     11.16666670	     -1.49282990	      0.35611922	    -50.36178301	      0.98201586	      0.93772840	      0.31152815	      0.95329320	      0.24983344	    -21.53760022	      3.06055253	      0.05341672	      7.96078353	     24.15859430	     -7.49999987	     -0.13765763	     -0.38368067	    -17.59998833	      2.97462284	      0.05191696	     12.54186775	      9.50987575	     -7.49999987	     -3.51692306	      0.56084143	     -4.60662473	     -5.56009377	    -12.88665516	     28.37980024	     28.27097632	     64.69625851	      5.24935600	    -11.00603027	     61.57115333	     17.45715905	     41.64222992
     11.18333330	     -1.47628865	      0.37119612	    -50.36339591	      0.98319495	      0.93647816	      0.31245447	      0.81223191	      0.21518568	    -21.23380606	      2.94982994	      0.05148424	      8.12664341	     24.43369910	     -7.49999987	     -0.15072680	     -0.36247977	    -17.38297772	      2.85848636	      0.04989000	     12.32518904	      9.27794443	     -7.49999987	     -3.40943516	      0.44032187	     -4.32970113	     -5.71700969	    -12.63848968	     28.65833785	     27.68183906	     63.86654400	      5.40775291	    -10.99748008	     64.06798594	     17.24387949	     40.05276365
     11.20000000	     -1.54977655	      0.27243467	    -50.24764232	      0.98583964	      0.93334843	      0.31280960	      0.90338511	      0.28518690	    -21.72824187	      3.19612352	      0.05578288	      8.06665855	     24.66693672	     -7.49999987	     -0.35411084	     -0.34688341	    -16.92849835	      2.83195053	      0.04942686	     12.33219711	      9.37329014	     -7.49999987	     -3.27831105	      0.59106647	     -4.57615898	     -5.68946424	    -12.56731417	     28.99174678	     26.97294268	     63.62470794	      4.66680561	    -10.88103378	     60.72062102	     17.55267791	     45.55588700
     11.21666670	     -1.67207055	      0.13380901	    -50.29070151	      0.98946973	      0.93586253	      0.31443686	      0.95757511	      0.51330599	    -21.69704748	      3.27736907	      0.05720088	      7.74857708	     24.31241252	     -7.49999987	     -0.66670004	     -0.37246323	    -16.69125079	      2.69229692	      0.04698945	     12.14720194	      9.32990923	     -7.49999987	     -2.94630113	      0.80627944	     -4.19655053	     -6.19913431	    -12.54689575	     28.50309827	     26.17680178	     63.17386406	      4.80401661	    -10.54470060	     65.85367561	     17.02951120	     39.84277074
     11.23333330	     -1.76327348	     -0.05373001	    -50.33438211	      0.98903485	      0.93202400	      0.31406834	      0.97470970	      0.67518692	    -22.12032183	      3.54988941	      0.06195726	      7.87504883	     24.52616651	     -7.49999987	     -0.97034956	     -0.43506951	    -16.44857143	      2.69359738	      0.04701214	     12.43319008	      9.42339482	     -7.49999987	     -2.74102959	      1.10276557	     -4.21454422	     -6.74614054	    -12.79315092	     27.84939477	     25.98257053	     62.67140481	      3.99640250	    -10.19038122	     62.61182263	     17.07658653	     44.69062580
     11.25000000	     -1.79708809	     -0.12853295	    -50.30023615	      0.98661657	      0.93616591	      0.31357360	      0.81981687	      0.69384149	    -21.83671381	      3.47921923	      0.06072383	      8.10178358	     24.67953454	     -7.49999987	     -1.14496135	     -0.44287787	    -16.12703680	      2.58409512	      0.04510097	     12.61417563	      9.42515903	     -7.49999987	     -2.46650080	      1.14933415	     -4.27966673	     -7.12561566	    -13.01481198	     27.85426326	     25.73008886	     62.67490377	      3.56415870	     -9.97957440	     62.75298706	     17.05188793	     44.63330493
     11.26666670	     -1.89663301	     -0.06090962	    -50.32825311	      0.98478804	      0.93618117	      0.31435892	      0.95572406	      0.76186720	    -21.55623327	      3.49684048	      0.06103138	      8.62212935	     24.82880991	     -7.49999987	     -1.08645757	     -0.44990768	    -15.87676646	      2.45723540	      0.04288685	     12.72495394	      9.10965518	     -7.49999987	     -2.07120324	      1.13862188	     -4.06249647	     -7.63180911	    -13.03752788	     27.31369407	     25.10777672	     62.55840274	      3.69431512	     -9.73994640	     67.61321611	     16.39945366	     38.10097863
     11.28333330	     -1.92006296	     -0.02538674	    -50.38905944	      0.98192665	      0.93503261	      0.31414139	      1.06608747	      0.85140029	    -21.75551234	      3.47097871	      0.06058001	      8.57349336	     24.76355974	     -7.49999987	     -0.98575689	     -0.51740323	    -15.78183865	      2.39955449	      0.04188013	     12.65933441	      9.14582020	     -7.49999987	     -1.94988475	      1.03278914	     -4.17198403	     -7.67491283	    -13.08964343	     27.52683509	     24.54796679	     62.58075039	      2.93376935	     -9.61838209	     64.05695115	     16.43233210	     44.52115408
     11.30000000	     -1.90765993	     -0.05561003	    -50.47717495	      0.98532979	      0.93631031	      0.31432279	      1.31576241	      1.00218247	    -22.45069549	      3.53573954	      0.06171030	      8.50690838	     25.21510913	     -7.49999987	     -0.94421351	     -0.60125324	    -15.77055225	      2.33472627	      0.04074866	     12.34988693	      9.04544609	     -7.49999987	     -1.91702343	      0.98805720	     -4.03574687	     -8.07564029	    -13.21693470	     26.97654597	     24.21971763	     62.20577672	      2.55169239	     -9.45291642	     63.82061849	     16.40736929	     44.91257533
     11.31666670	     -2.03728451	     -0.00119928	    -50.61411547	      0.98359322	      0.93520807	      0.31376635	      1.65480367	      1.28755626	    -22.38875418	      3.42849175	      0.05983847	      8.30344668	     24.84577628	     -7.49999987	     -0.71449746	     -0.74926936	    -15.69904788	      2.41934426	      0.04222552	     12.15137333	      8.81746166	     -7.49999987	     -1.67574379	      0.96871506	     -3.75754220	     -8.52364465	    -13.24200034	     25.93892608	     23.84784607	     61.85829095	      2.70766203	     -9.23117744	     68.67415097	     15.75311629	     37.30811743
     11.33333330	     -2.01438488	     -0.07511981	    -50.65511270	      0.98136809	      0.93573911	      0.31380960	      1.59214060	      1.40450591	    -22.86814871	      3.32042170	      0.05795229	      8.25254492	     25.58820784	     -7.49999987	     -0.63361133	     -0.93905196	    -15.61509250	      2.34589718	      0.04094363	     11.81359840	      8.45013124	     -7.49999987	     -1.92658959	      1.00281569	     -3.76910136	     -8.46029146	    -13.17603256	     25.16274345	     22.97598184	     61.59567737	      1.97334713	     -9.24277436	     64.42272395	     16.31519924	     43.69934623
     11.35000000	     -2.05125050	      0.04610481	    -50.61831372	      0.98361350	      0.93669033	      0.31532428	      1.62369011	      1.32886690	    -23.07630656	      3.24501737	      0.05663624	      8.19459272	     26.31365365	     -7.49999987	     -0.37518328	     -1.01740098	    -15.88179319	      2.32377548	      0.04055753	     11.73041430	      8.85527875	     -7.49999987	     -1.74648089	      0.83208083	     -3.70354338	     -8.61927974	    -13.22945715	     25.38459189	     22.08029647	     61.62289425	      1.38853633	     -8.94942113	     62.84243082	     15.86076930	     47.14716018
